# xmcd CD database file
#
# Track frame offsets:
#	150
#	13848
#	27283
#	40138
#	49258
#	63903
#	77883
#	95845
#	118258
#	140040
#	157368
#	179720
#	195080
#	214758
#	229433
#	244390
#	268635
#
# Disc length: 3958 seconds
#
# Revision: 0
# Processed by: cddbd v1.5PL3 Copyright (c) Steve Scherf et al.
# Submitted via: CDex 1.50
#
DISCID=060f7411
DTITLE=Bucky Pizzarelli - The Rhythm Encounters
DYEAR=1989
DGENRE=Jazz
TTITLE0=Slam Bow
TTITLE1=It's Only A Paper Moon
TTITLE2=That's My Kick
TTITLE3=The Very Thought Of You
TTITLE4=Jersey Bounce
TTITLE5=Nightwind
TTITLE6=Masquerade
TTITLE7=B and S Blues
TTITLE8=I Got Rhythm
TTITLE9=Just Friends
TTITLE10=The Jitterbug Waltz
TTITLE11=My Old Flame
TTITLE12=Sweet Georgia Brown
TTITLE13=All Of Me
TTITLE14=Blues For Red
TTITLE15=I Thought About You
TTITLE16=We'll Be Together Again
EXTD=YEAR: 1989
EXTT0=
EXTT1=
EXTT2=
EXTT3=
EXTT4=
EXTT5=
EXTT6=
EXTT7=
EXTT8=
EXTT9=
EXTT10=
EXTT11=
EXTT12=
EXTT13=
EXTT14=
EXTT15=
EXTT16=
PLAYORDER=
